<?xml version="1.0" encoding="UTF-8"?>
<svg id="Layer_1" xmlns="http://www.w3.org/2000/svg" version="1.1" viewBox="0 0 584.6 116.7">
  <!-- Generator: Adobe Illustrator 29.1.0, SVG Export Plug-In . SVG Version: 2.1.0 Build 142)  -->
  <defs>
    <style>
      .st0 {
        isolation: isolate;
      }

      .st1 {
        fill: #336195;
      }

      .st2 {
        fill: #0076bb;
      }

      .st3 {
        fill: #00953b;
      }
    </style>
  </defs>
  <g id="Layer_11" data-name="Layer_1">
    <g>
      <polygon class="st1" points="112.9 24.2 121.8 24.2 121.8 62.3 134.7 62.3 134.7 70.8 112.9 70.8 112.9 24.2"/>
      <path class="st1" d="M153.4,35.5c3.3,0,6.3.8,9.1,2.4,2.9,1.6,5.1,3.8,6.7,6.6,1.6,2.8,2.4,5.8,2.4,9s-.8,6.3-2.4,9.1-3.8,5-6.6,6.6-5.8,2.4-9.2,2.4c-4.9,0-9.1-1.7-12.6-5.3-3.5-3.5-5.2-7.7-5.2-12.8s2-9.9,5.9-13.4c3.5-3.1,7.5-4.7,11.9-4.7M153.6,43.6c-2.7,0-4.9,1-6.7,2.8-1.8,1.9-2.7,4.3-2.7,7.1s.9,5.4,2.6,7.2c1.8,1.9,4,2.8,6.7,2.8s4.9-1,6.7-2.8,2.7-4.3,2.7-7.2-.9-5.3-2.6-7.2c-1.7-1.8-4-2.7-6.7-2.7"/>
      <path class="st1" d="M209.2,43.3l-7.2,3.9c-1.3-1.4-2.7-2.4-4-2.9-1.3-.6-2.9-.8-4.7-.8-3.3,0-5.8,1-7.9,2.9-2,1.9-3,4.4-3,7.4s1,5.3,2.9,7.1c1.9,1.9,4.4,2.7,7.6,2.7s6.8-1.3,9-3.9l6.8,4.6c-3.7,4.8-8.9,7.2-15.6,7.2s-10.8-1.8-14.2-5.4c-3.4-3.6-5.2-7.8-5.2-12.6s.8-6.4,2.5-9.2,4-5,6.9-6.6c3-1.6,6.3-2.4,10-2.4s6.5.7,9.2,2c2.7,1.5,4.9,3.5,6.6,5.9"/>
      <path class="st1" d="M213.7,36.3h8.8v16.5c0,3.3.2,5.4.7,6.7.4,1.2,1.2,2.2,2.1,2.9,1,.7,2.2,1.1,3.6,1.1s2.6-.3,3.6-1c1-.7,1.7-1.7,2.2-3,.3-1,.6-3.1.6-6.3v-16.8h8.6v14.6c0,6-.4,10.1-1.4,12.3-1.2,2.7-2.9,4.8-5.1,6.2-2.2,1.5-5.1,2.2-8.6,2.2s-6.8-.8-9.1-2.5c-2.4-1.7-4-4-4.9-7.1-.7-2.1-1-5.9-1-11.4v-14.4"/>
      <path class="st1" d="M249.3,36.3h8.6v4c1.5-1.6,3.1-2.8,4.9-3.6,1.8-.8,3.8-1.2,5.9-1.2s4.1.5,5.8,1.6c1.7,1.1,3.1,2.6,4.2,4.6,1.3-2,3-3.5,5-4.6s4.2-1.6,6.6-1.6,4.6.6,6.5,1.7c1.9,1.1,3.2,2.6,4,4.4.8,1.9,1.2,4.8,1.2,8.9v20.2h-8.7v-17.4c0-3.9-.5-6.6-1.5-7.9-1-1.4-2.4-2.1-4.4-2.1s-2.8.4-4,1.3c-1.2.8-2,2-2.6,3.5s-.8,3.9-.8,7.2v15.5h-8.7v-16.7c0-3.1-.2-5.3-.7-6.7-.4-1.4-1.1-2.4-2.1-3.1-.9-.7-2-1-3.3-1s-2.7.4-3.9,1.3c-1.2.8-2.1,2.1-2.6,3.6-.6,1.5-.9,4-.9,7.3v15.3h-8.6v-34.5"/>
      <polygon class="st2" points="303.3 24.2 329.1 24.2 329.1 33 320.6 33 320.6 70.8 311.6 70.8 311.6 33 303.3 33 303.3 24.2"/>
      <path class="st2" d="M365.5,56h-27.8c.4,2.4,1.5,4.4,3.2,5.8,1.7,1.5,4,2.1,6.7,2.1s6-1.1,8.3-3.4l7.3,3.4c-1.8,2.6-4,4.5-6.5,5.7-2.5,1.2-5.6,1.9-9,1.9-5.4,0-9.8-1.7-13.2-5.1-3.4-3.4-5.1-7.7-5.1-12.8s1.7-9.6,5.1-13.1c3.4-3.5,7.6-5.2,12.7-5.2s9.8,1.7,13.2,5.2c3.4,3.5,5.1,8,5.1,13.7v1.7M356.8,49.2c-.6-1.9-1.7-3.5-3.4-4.7-1.7-1.2-3.6-1.8-5.8-1.8s-4.5.7-6.3,2c-1.1.8-2.2,2.3-3.2,4.4h18.7Z"/>
      <path class="st2" d="M369.2,36.3h8.6v3.5c2-1.6,3.8-2.8,5.3-3.4,1.6-.6,3.2-1,4.9-1,3.4,0,6.3,1.2,8.7,3.6,2,2,3,5,3,9v22.7h-8.5v-15.1c0-4.1-.2-6.8-.6-8.2-.4-1.3-1-2.4-1.9-3.1-.9-.7-2-1.1-3.4-1.1s-3.3.6-4.5,1.7c-1.2,1.2-2.1,2.8-2.6,4.8-.2,1.1-.4,3.4-.4,6.9v13.8h-8.6v-34.3"/>
      <path class="st2" d="M439.3,56h-27.8c.4,2.4,1.5,4.4,3.2,5.8,1.7,1.5,4,2.1,6.7,2.1s6-1.1,8.3-3.4l7.3,3.4c-1.8,2.6-4,4.5-6.5,5.7-2.5,1.2-5.6,1.9-9,1.9-5.4,0-9.8-1.7-13.2-5.1-3.4-3.4-5-7.6-5-12.7s1.7-9.6,5.1-13.1c3.4-3.5,7.6-5.2,12.7-5.2s9.8,1.7,13.2,5.2c3.4,3.5,5.1,8,5.1,13.7v1.6M430.7,49.2c-.6-1.9-1.7-3.5-3.4-4.7-1.7-1.2-3.6-1.8-5.8-1.8s-4.5.7-6.3,2c-1.1.8-2.2,2.3-3.2,4.4h18.7Z"/>
      <path class="st2" d="M443.1,36.3h8.6v3.5c2-1.6,3.8-2.8,5.3-3.4,1.6-.6,3.2-1,4.9-1,3.4,0,6.3,1.2,8.7,3.6,2,2,3,5,3,9v22.7h-8.5v-15.1c0-4.1-.2-6.8-.6-8.2s-1-2.4-1.9-3.1c-.9-.7-2-1.1-3.4-1.1s-3.3.6-4.5,1.7c-1.2,1.2-2.1,2.8-2.6,4.8-.2,1.1-.4,3.4-.4,6.9v13.8h-8.7v-34.3"/>
      <path class="st2" d="M499.8,41.1l-5.4,5.3c-2.2-2.1-4.2-3.3-5.9-3.3s-1.7.2-2.3.6c-.6.4-.8.9-.8,1.5s.2.9.5,1.3c.3.4,1.2.9,2.6,1.6l3.1,1.6c3.4,1.6,5.6,3.3,6.9,5,1.2,1.7,1.9,3.7,1.9,6s-1.1,5.6-3.4,7.6c-2.2,2-5.3,3.1-9,3.1s-9-2-12-5.9l5.3-5.8c1,1.2,2.2,2.1,3.6,2.9,1.3.7,2.6,1.1,3.6,1.1s2.1-.3,2.7-.8c.7-.6,1.1-1.2,1.1-1.9,0-1.3-1.2-2.6-3.8-3.9l-2.9-1.5c-5.6-2.8-8.4-6.3-8.4-10.5s1.1-5,3.1-6.9c2.1-1.9,4.8-2.9,8.1-2.9s4.4.5,6.3,1.5c2,1.1,3.6,2.6,5,4.4"/>
      <path class="st2" d="M504.9,67c.6,0,1.1.2,1.5.6.4.4.6.9.6,1.5s-.2,1.1-.6,1.5c-.4.4-.9.6-1.5.6s-1.1-.2-1.5-.6c-.4-.4-.6-.9-.6-1.5s.2-1.1.6-1.5.9-.6,1.5-.6M528.2,56.1l-1.9,1.2c-1.6-2.2-3.9-3.3-6.7-3.3s-4.2.7-5.6,2.2c-1.5,1.5-2.2,3.2-2.2,5.3s.3,2.6,1,3.8c.7,1.2,1.6,2.1,2.8,2.7,1.2.7,2.5,1,4,1,2.7,0,4.9-1.1,6.7-3.3l1.9,1.2c-.9,1.3-2.1,2.4-3.6,3.1-1.5.7-3.2,1.1-5.1,1.1-2.9,0-5.4-1-7.3-2.8-1.9-1.9-2.9-4.2-2.9-6.8s.4-3.5,1.3-5c.9-1.5,2.1-2.7,3.7-3.6,1.6-.8,3.4-1.3,5.3-1.3s2.4.2,3.5.6,2.1.8,2.9,1.5c.8.5,1.5,1.3,2.1,2.2M539.8,51.7c2.9,0,5.2,1,7.1,3.1,1.7,1.9,2.6,4.2,2.6,6.7s-.9,4.9-2.7,6.8c-1.8,2-4.2,2.9-6.9,2.9s-5.2-1-7-2.9c-1.8-2-2.7-4.2-2.7-6.8s.8-4.8,2.6-6.7c1.9-2.1,4.2-3.1,7.1-3.1M539.8,54c-2,0-3.7.7-5.1,2.2-1.4,1.5-2.1,3.3-2.1,5.3s.3,2.6,1,3.8c.7,1.2,1.5,2.1,2.6,2.7,1.1.6,2.3,1,3.6,1s2.5-.3,3.6-1c1.1-.6,2-1.5,2.6-2.7.7-1.2,1-2.4,1-3.8,0-2.1-.7-3.9-2.1-5.3-1.4-1.5-3.1-2.2-5.1-2.2M552.2,52.2h2.4v3.2c.8-1.2,1.7-2.1,2.6-2.6,1.2-.7,2.5-1.1,3.8-1.1s1.7.2,2.6.5c.8.3,1.5.8,2,1.4.5.6,1,1.4,1.3,2.5.8-1.5,1.8-2.6,3-3.3,1.2-.7,2.5-1.1,3.8-1.1s2.4.3,3.4,1c1,.7,1.7,1.6,2.2,2.7.4,1.2.7,2.9.7,5.2v10.2h-2.4v-10.2c0-2-.2-3.4-.4-4.1s-.8-1.3-1.5-1.8c-.7-.4-1.5-.7-2.5-.7s-2.2.3-3.1,1c-1,.7-1.7,1.6-2.1,2.7-.4,1.1-.7,3-.7,5.7v7.3h-2.4v-9.6c0-2.2-.2-3.8-.4-4.5-.3-.8-.8-1.5-1.5-1.9-.7-.5-1.5-.7-2.5-.7s-2.1.3-3.1,1c-1,.7-1.7,1.6-2.1,2.7-.4,1.1-.7,2.9-.7,5.2v7.9h-2.4v-18.6"/>
      <path class="st3" d="M75.9,14l-6.2-6.2c-.2-.2-.4-.2-.6,0L22.6,54.3l-5.8-5.8-.4-.4-5.4-5.4c-.2-.2-.7-.2-.9,0l-5.8,5.8c-.2.2-.2.7,0,.9l5.4,5.4.4.4,9.4,9.4,3,3c.2.2.4.2.6,0h.1c0-.1,0-.1,0-.2l12.2-12.2.4-.4,4.8-4.8.6-.6,4.6-4.6.6-.6,5.2-5.2s0,0,0,0l24.3-24.3c.2-.2.2-.4,0-.6h0Z"/>
      <path class="st1" d="M81.8,80.2l-28.6-28.6c0,0-.2-.1-.3-.1-.1,0-.2,0-.3.1l-23.7,23.7c-.2.2-.2.4,0,.6l6.2,6.2c.2.2.4.2.6,0l17.2-17.2,22.1,22.1c.2.2.4.2.6,0l6.2-6.2c.2-.2.2-.4,0-.6h0Z"/>
      <path class="st2" d="M95,67.1l-22.3-22.3,17.2-17.2c.2-.2.2-.4,0-.6l-6.2-6.2c-.2-.2-.4-.2-.6,0l-23.7,23.7c0,0-.1.2-.1.3,0,0,0,.2.1.3l28.8,28.8c.2.2.4.2.6,0l6.2-6.2c.2-.2.2-.4,0-.6h0Z"/>
    </g>
    <g class="st0">
      <g class="st0">
        <path class="st1" d="M112.8,91.4h1.7v7.5h2.9l4.7-7.5h1.9l-5.2,8.2h0s5.5,9.1,5.5,9.1h-2l-5-8.3h-2.9v8.3h-1.7v-17.3Z"/>
        <path class="st1" d="M127.6,91.4h1.7l8.8,12.5c.6.9,1.4,2.3,1.4,2.3h0s-.1-1.4-.1-2.3v-12.5h1.7v17.3h-1.7l-8.8-12.5c-.6-.9-1.4-2.3-1.4-2.3h0s.1,1.4.1,2.3v12.5h-1.7v-17.3Z"/>
        <path class="st1" d="M153.7,91.1c4.9,0,8.8,3.9,8.8,8.8s-3.9,9.1-8.8,9.1-8.8-4-8.8-9.1,3.9-8.8,8.8-8.8ZM153.7,107.4c3.9,0,7-3.3,7-7.5s-3.2-7.3-7-7.3-7,3.1-7,7.3,3.1,7.5,7,7.5Z"/>
        <path class="st1" d="M175.2,93.9s-.3,1.5-.6,2.6l-3.3,12.2h-2l-4.5-17.3h1.8l3.3,13.4c.2.9.4,1.8.4,1.8h0s.1-1,.4-1.8l3.6-13.4h1.6l3.6,13.4c.2.9.4,1.8.4,1.8h0s.2-1,.4-1.8l3.5-13.4h1.8l-4.6,17.3h-2l-3.3-12.2c-.3-1.1-.6-2.6-.6-2.6h0Z"/>
        <path class="st1" d="M195.8,91.4h5.9c2.7,0,4.7,1.7,4.7,4.4s-.9,3.1-2.2,3.8h0c1.8.5,2.9,2.2,2.9,4.3,0,3.1-2.3,4.9-5.2,4.9h-6.1v-17.3ZM201.7,98.9c1.7,0,2.9-1.2,2.9-3s-1.1-3-3-3h-4.2v6h4.2ZM201.9,107.2c2.1,0,3.4-1.3,3.4-3.4s-1.4-3.4-3.4-3.4h-4.4v6.8h4.4Z"/>
        <path class="st1" d="M211.2,91.4h9.8v1.5h-8.1v6.3h6.6v1.5h-6.6v6.4h8.5v1.5h-10.2v-17.3Z"/>
        <path class="st1" d="M229.1,92.9h-6.2v-1.5h14.1v1.5h-6.2v15.8h-1.7v-15.8Z"/>
        <path class="st1" d="M244.1,92.9h-6.2v-1.5h14.1v1.5h-6.2v15.8h-1.7v-15.8Z"/>
        <path class="st1" d="M254.7,91.4h9.8v1.5h-8.1v6.3h6.6v1.5h-6.6v6.4h8.5v1.5h-10.2v-17.3Z"/>
        <path class="st1" d="M268.8,91.4h5.1c1.8,0,2.6.2,3.3.5,1.6.7,2.6,2.4,2.6,4.5s-1.3,4.1-3.3,4.7h0s.2.3.4.7l3.8,7h-1.9l-3.9-7.3h-4.4v7.3h-1.7v-17.3ZM274.6,99.9c2.1,0,3.4-1.4,3.4-3.5s-.6-2.5-1.6-3c-.5-.3-1.1-.4-2.5-.4h-3.5v7h4.1Z"/>
        <path class="st1" d="M290.9,91.4h9.8v1.5h-8.1v6.3h6.6v1.5h-6.6v6.4h8.5v1.5h-10.2v-17.3Z"/>
        <path class="st1" d="M308.6,99.7l-5-8.3h2l3,5.1c.5.9,1.1,2,1.1,2h0s.5-1.1,1-2l3.1-5.1h2l-5.1,8.3,5.5,9h-2l-3.6-6c-.5-.9-1.1-1.9-1.1-1.9h0s-.5,1-1.1,1.9l-3.5,6h-2l5.5-9Z"/>
        <path class="st1" d="M319.5,91.4h6c3.1,0,5.3,2,5.3,5.2s-2.2,5.3-5.3,5.3h-4.3v6.8h-1.7v-17.3ZM325.3,100.4c2.3,0,3.8-1.4,3.8-3.8s-1.5-3.7-3.8-3.7h-4.1v7.5h4.1Z"/>
        <path class="st1" d="M334.2,91.4h9.8v1.5h-8.1v6.3h6.6v1.5h-6.6v6.4h8.5v1.5h-10.2v-17.3Z"/>
        <path class="st1" d="M348.3,91.4h5.1c1.8,0,2.6.2,3.3.5,1.6.7,2.6,2.4,2.6,4.5s-1.3,4.1-3.3,4.7h0s.2.3.4.7l3.8,7h-1.9l-3.9-7.3h-4.4v7.3h-1.7v-17.3ZM354.1,99.9c2.1,0,3.4-1.4,3.4-3.5s-.6-2.5-1.6-3c-.5-.3-1.1-.4-2.5-.4h-3.5v7h4.1Z"/>
        <path class="st1" d="M363.8,91.4h1.7v17.3h-1.7v-17.3Z"/>
        <path class="st1" d="M370.5,91.4h9.8v1.5h-8.1v6.3h6.6v1.5h-6.6v6.4h8.5v1.5h-10.2v-17.3Z"/>
        <path class="st1" d="M384.5,91.4h1.7l8.8,12.5c.6.9,1.4,2.3,1.4,2.3h0s-.1-1.4-.1-2.3v-12.5h1.7v17.3h-1.7l-8.8-12.5c-.6-.9-1.4-2.3-1.4-2.3h0s.1,1.4.1,2.3v12.5h-1.7v-17.3Z"/>
        <path class="st1" d="M410.6,91.1c4.1,0,6.2,2.2,6.2,2.2l-.9,1.3s-2-1.9-5.3-1.9-7,3.2-7,7.2,2.9,7.5,7,7.5,5.6-2.3,5.6-2.3l1,1.2s-2.4,2.7-6.6,2.7-8.8-4-8.8-9.1,3.7-8.8,8.7-8.8Z"/>
        <path class="st1" d="M421,91.4h9.8v1.5h-8.1v6.3h6.6v1.5h-6.6v6.4h8.5v1.5h-10.2v-17.3Z"/>
        <path class="st1" d="M434.6,106.8h1.9v2h-1.9v-2Z"/>
        <path class="st1" d="M447.5,105.5s1.8,1.9,4.5,1.9,3.4-1.1,3.4-3c0-4.4-8.6-3.3-8.6-8.6s2.2-4.7,5.4-4.7,4.6,1.7,4.6,1.7l-.8,1.4s-1.5-1.5-3.8-1.5-3.6,1.5-3.6,3c0,4.1,8.6,2.9,8.6,8.6s-2,4.7-5.2,4.7-5.5-2.2-5.5-2.2l1-1.3Z"/>
        <path class="st1" d="M461,91.4h1.7v17.3h-1.7v-17.3Z"/>
        <path class="st1" d="M467.7,91.4h1.7l8.8,12.5c.6.9,1.4,2.3,1.4,2.3h0s-.1-1.4-.1-2.3v-12.5h1.7v17.3h-1.7l-8.8-12.5c-.6-.9-1.4-2.3-1.4-2.3h0s.1,1.4.1,2.3v12.5h-1.7v-17.3Z"/>
        <path class="st1" d="M493.8,91.1c4.1,0,6.2,2.2,6.2,2.2l-.9,1.3s-2-1.9-5.3-1.9-7,3.2-7,7.2,2.9,7.5,7,7.5,5.6-2.3,5.6-2.3l1,1.2s-2.4,2.7-6.6,2.7-8.8-4-8.8-9.1,3.7-8.8,8.7-8.8Z"/>
        <path class="st1" d="M504.2,91.4h9.8v1.5h-8.1v6.3h6.6v1.5h-6.6v6.4h8.5v1.5h-10.2v-17.3Z"/>
        <path class="st1" d="M523.8,107.2h3.9v-12.7c0-.5,0-1,0-1h0s-.2.4-.9,1l-1.8,1.8-1.1-1.1,3.9-3.9h1.6v15.8h3.8v1.5h-9.4v-1.5Z"/>
        <path class="st1" d="M536.1,108.3l.6-1.5s1.1.6,2.5.6c3.6,0,5.5-3.6,5.8-6.9h0c-.9,1.2-2.6,2-4.4,2-3.2,0-5.4-2.3-5.4-5.6s2.4-5.8,5.4-5.8,6.3,3.4,6.3,8.1-2.2,9.8-7.6,9.8-3.2-.7-3.2-.7ZM545,98c0-2.3-1.8-5.3-4.4-5.3s-3.7,1.8-3.7,4.2,1.6,4.1,3.9,4.1,4.2-1.6,4.2-3Z"/>
        <path class="st1" d="M550.7,108.3l.6-1.5s1.1.6,2.5.6c3.6,0,5.5-3.6,5.8-6.9h0c-.9,1.2-2.6,2-4.4,2-3.2,0-5.4-2.3-5.4-5.6s2.4-5.8,5.4-5.8,6.3,3.4,6.3,8.1-2.2,9.8-7.6,9.8-3.2-.7-3.2-.7ZM559.7,98c0-2.3-1.8-5.3-4.4-5.3s-3.7,1.8-3.7,4.2,1.6,4.1,3.9,4.1,4.2-1.6,4.2-3Z"/>
        <path class="st1" d="M565.5,105.4s1.3,2,3.9,2,4.3-1.7,4.3-4.1-1.9-4.1-4.4-4.1-3.2.9-3.2.9l-1.1-.4.9-8.4h8.4v1.5h-6.9l-.5,4.4c0,.6-.2,1-.2,1h0s1.1-.7,2.6-.7c3.5,0,6,2.5,6,5.6s-2.6,5.7-6,5.7-5.1-2.5-5.1-2.5l1.1-1.2Z"/>
        <path class="st1" d="M578.6,106.8h1.9v2h-1.9v-2Z"/>
      </g>
    </g>
  </g>
</svg>