<svg version="1.2" xmlns="http://www.w3.org/2000/svg" viewBox="0 0 454 82" width="454" height="82">
	<style>
		.s0 { fill: #006e43 } 
	</style>
	<path class="s0" d="m188.19 67.36h4.45v4q-0.39 0.17-0.79 0.3-0.41 0.12-0.82 0.2-0.42 0.08-0.84 0.11-0.43 0.03-0.85 0.01c-3.77 0-6.24-2.22-6.24-5.48 0-3.26 2.45-5.43 6.22-5.43q0.55 0.01 1.1 0.07 0.55 0.07 1.08 0.2 0.54 0.12 1.06 0.31 0.52 0.18 1.02 0.42l0.15-1.58q-0.51-0.25-1.05-0.44-0.53-0.18-1.09-0.31-0.55-0.13-1.12-0.19-0.56-0.06-1.13-0.06c-4.81 0-8 2.85-8 7 0 4.15 3.21 7 8 7q0.63 0.02 1.26-0.05 0.62-0.06 1.24-0.2 0.61-0.15 1.2-0.37 0.59-0.22 1.15-0.51v-6.53h-6.07z"/>
	<path class="s0" d="m206.88 59.67l-5.65 13.65h1.77l1.26-3.17h7.21l1.27 3.17h1.74l-5.64-13.65zm-2.1 9.06l3.07-7.33 3.07 7.33z"/>
	<path class="s0" d="m232.68 64.38c0-3.23-2.2-4.71-4.77-4.71h-6v13.65h1.66v-4.32h4.34l3.44 4.28h2.08l-3.76-4.57q0.67-0.23 1.24-0.66 0.57-0.42 0.98-1.01 0.41-0.58 0.61-1.27 0.2-0.68 0.18-1.39zm-5 3.16h-4.18v-6.36h4.18q0.66-0.06 1.28 0.16 0.62 0.23 1.09 0.69 0.47 0.46 0.71 1.08 0.23 0.62 0.18 1.28 0.01 0.64-0.23 1.23-0.24 0.59-0.7 1.04-0.46 0.45-1.05 0.68-0.6 0.23-1.24 0.2z"/>
	<path class="s0" d="m246.72 59.67h-5.59v13.65h5.57c4.57 0 6.91-2.63 6.91-6.82 0-4.03-2.33-6.83-6.89-6.83zm-0.1 12.13h-3.83v-10.62h3.83c3.53 0 5.3 2 5.3 5.32 0 3.32-1.77 5.3-5.3 5.3z"/>
	<path fill-rule="evenodd" class="s0" d="m263.59 67.06h7.08v-1.51h-7.08v-4.38h8.13v-1.5h-9.79v13.65h10v-1.5h-8.34v-4.76z"/>
	<path fill-rule="evenodd" class="s0" d="m290.9 70.86l-9.28-11.19h-1.74v13.65h1.67v-11.15l9.27 11.15h1.74v-13.65h-1.66v11.19z"/>
	<path class="s0" d="m323 65.9h-1.53q0.05 0.52 0.02 1.04-0.03 0.52-0.15 1.03-0.11 0.51-0.3 1-0.2 0.48-0.47 0.93l-4.44-4.19c-1-1-1.58-1.6-1.58-2.81 0-1.21 1.27-2 2.86-2q0.37 0 0.75 0.04 0.37 0.04 0.73 0.12 0.37 0.08 0.72 0.2 0.36 0.12 0.7 0.27l0.2-1.46q-0.37-0.15-0.75-0.27-0.39-0.11-0.78-0.19-0.39-0.08-0.79-0.12-0.4-0.04-0.8-0.04c-2.49 0-4.47 1.25-4.47 3.46q0.01 0.39 0.09 0.77 0.08 0.38 0.23 0.74 0.15 0.35 0.37 0.67 0.21 0.33 0.49 0.6-0.55 0.24-1.01 0.63-0.46 0.38-0.81 0.87-0.34 0.49-0.54 1.06-0.2 0.56-0.24 1.16c0 2.43 2.13 4.1 5.1 4.1q0.56 0.02 1.11-0.07 0.55-0.1 1.07-0.29 0.53-0.19 1.01-0.48 0.47-0.29 0.89-0.66l1.38 1.3h2.23l-2.56-2.44q0.36-0.55 0.62-1.15 0.27-0.6 0.43-1.23 0.16-0.63 0.22-1.29 0.05-0.65 0-1.3zm-6.43 6.1c-2 0-3.48-1.06-3.48-2.62q0.01-0.43 0.14-0.85 0.13-0.41 0.37-0.77 0.24-0.36 0.58-0.64 0.33-0.28 0.73-0.45l4.63 4.26q-0.3 0.27-0.65 0.48-0.35 0.21-0.73 0.35-0.38 0.14-0.78 0.2-0.4 0.06-0.81 0.04z"/>
	<path class="s0" d="m348.12 59.67h-6v13.65h1.66v-4.32h4.38q0.95 0.04 1.83-0.29 0.89-0.34 1.57-1 0.67-0.66 1.03-1.54 0.35-0.88 0.33-1.83 0.06-0.96-0.29-1.86-0.35-0.9-1.04-1.58-0.69-0.67-1.6-0.99-0.91-0.32-1.87-0.24zm-0.19 7.87h-4.19v-6.36h4.19q0.66-0.06 1.28 0.17 0.62 0.22 1.09 0.68 0.46 0.47 0.7 1.09 0.23 0.61 0.18 1.27 0.01 0.64-0.23 1.24-0.24 0.6-0.71 1.05-0.46 0.44-1.06 0.67-0.61 0.22-1.25 0.19z"/>
	<path fill-rule="evenodd" class="s0" d="m362.4 67.06h7.08v-1.51h-7.08v-4.38h8.14v-1.5h-9.79v13.65h10v-1.5h-8.35v-4.76z"/>
	<path fill-rule="evenodd" class="s0" d="m377.68 61.21h4.57v12.11h1.65v-12.11h4.57v-1.54h-10.79v1.54z"/>
	<path fill-rule="evenodd" class="s0" d="m227.33 41.19h-17.14v-7.39h13.41v-6.78h-13.41v-6.99h16.46l-1.26-6.67h-23.21v34.51h23.88l1.27-6.68z"/>
	<path fill-rule="evenodd" class="s0" d="m263.87 13.36h-7.87v22.09l-14.19-22.09h-8.13v34.51h7.87v-22.09l14.09 22.09h8.23v-34.51z"/>
	<path fill-rule="evenodd" class="s0" d="m270.14 13.36l-1.17 6.67h10.19v27.84h8.84v-27.84h10.51l-1.4-6.67h-26.97z"/>
	<path fill-rule="evenodd" class="s0" d="m388.8 41.19v-27.83h-8.02v34.51h23.12l1.27-6.68h-16.37z"/>
	<path class="s0" d="m193.57 46.52v-7.81q-1.07 0.7-2.23 1.24-1.16 0.53-2.39 0.89-1.23 0.35-2.49 0.52-1.27 0.17-2.55 0.14c-5.75 0-11.18-3.51-11.18-10.86 0-6.83 4.66-10.92 11.38-10.92 6.06 0 9.26 2.33 9.46 2.48v-8q-1.12-0.37-2.26-0.64-1.14-0.28-2.31-0.45-1.16-0.18-2.33-0.26-1.17-0.09-2.35-0.07c-12.21 0-19.66 8.17-19.66 18.62 0 11.28 8.74 17.13 18.78 17.13q1.3 0.02 2.6-0.1 1.29-0.11 2.57-0.37 1.28-0.25 2.52-0.64 1.24-0.38 2.44-0.9z"/>
	<path class="s0" d="m360.92 13.36h-7.79l-8 21.57h-4.28l-2.48 6.7h4.29l-2.3 6.24h7.92l2.17-6.21h12.88l2.17 6.21h8.13zm-8.11 21.57l4.08-11.69 4.11 11.69z"/>
	<path class="s0" d="m326.1 34.83q0.25-0.08 0.49-0.18 0.24-0.09 0.48-0.19 0.24-0.11 0.47-0.22 0.23-0.12 0.46-0.24c3.35-1.88 5-5 5-9.44 0-11.2-10.93-11.2-12.93-11.2h-16.07v34.51h8v-12.11h5.43l7.67 12.11h9.52zm-3.8-5.74h-10.3v-9.09h10.3l3 4.53z"/>
	<path class="s0" d="m51.09 75.33h4v-43.15c-1.87 3.23-3.39 6.65-4.52 10.2-1.14 3.55-1.88 7.22-2.23 10.94-0.34 3.71-0.28 7.45 0.18 11.15 0.46 3.7 1.32 7.34 2.57 10.86z"/>
	<path class="s0" d="m60.31 24.77v50.56h7v-57.39q-0.95 0.77-1.87 1.58-0.92 0.81-1.79 1.67-0.88 0.85-1.71 1.75-0.84 0.9-1.63 1.83z"/>
	<path class="s0" d="m106 29.56l4.72-3.14 40.4 26.78q-0.11-1.21-0.29-2.42-0.17-1.21-0.4-2.41-0.22-1.2-0.51-2.38-0.28-1.19-0.62-2.36l-32.24-21.39 4.73-3.13 24.21 16.06q-1.48-2.98-3.33-5.76-1.85-2.77-4.04-5.28-2.2-2.51-4.69-4.72-2.49-2.21-5.25-4.08l-0.29-0.2q-0.63-0.42-1.27-0.82-0.65-0.4-1.3-0.78-0.66-0.38-1.32-0.74-0.66-0.37-1.34-0.71-0.96-0.5-2-0.95l-41.71 27.7v-6.27l35.79-23.74q-1.17-0.36-2.35-0.67-1.19-0.3-2.38-0.55-1.2-0.26-2.41-0.45-1.2-0.19-2.42-0.33l-26.23 17.38v-6.27l17.16-11.38q-3.07 0.18-6.1 0.73-3.02 0.54-5.96 1.45-2.94 0.9-5.75 2.15-2.81 1.25-5.45 2.82l-0.86 0.52v61.11h7v-28.14l20.24-13.45 20.26 13.45v28.14h7v-23.52l5.22 3.46v20.06h7v-15.43l5.22 3.46v12h4q0.34-0.97 0.65-1.95 0.3-0.98 0.56-1.97 0.27-0.99 0.49-1.99 0.23-1 0.41-2.01 0.18-0.97 0.31-1.94 0.14-0.97 0.25-1.95 0.1-0.98 0.16-1.96 0.07-0.98 0.1-1.96z"/>
	<path fill-rule="evenodd" class="s0" d="m95.37 57.22h8.71v18.1h-8.71z"/>
</svg>