<svg version="1.1" id="Layer_1" xmlns="http://www.w3.org/2000/svg" xmlns:xlink="http://www.w3.org/1999/xlink" x="0px" y="0px" viewBox="-17.3 -0.4 115.7 112.6" style="enable-background:new -17.3 -0.4 115.7 112.6;" xml:space="preserve">
 <style type="text/css">
  .st0{fill:#F34D2D;}
 </style>
 <path class="st0" d="M-8.4,69.4c2.4,0,4.6-0.9,6.3-2.5l31.9-31.1c1.7-1.6,2.6-3.8,2.6-6.1c0-2.3-0.9-4.5-2.6-6.1
	c-1.7-1.6-3.9-2.5-6.3-2.5c-2.4,0-4.6,0.9-6.3,2.5l-31.9,31.1c-1.7,1.6-2.6,3.8-2.6,6.1c0,2.3,0.9,4.5,2.6,6.1
	C-13,68.5-10.8,69.4-8.4,69.4z M32.4,72.5c0-2.3-0.9-4.5-2.6-6.1c-1.7-1.6-3.9-2.5-6.3-2.5s-4.6,0.9-6.3,2.5l-31.9,31.1
	c-3.5,3.4-3.5,8.9,0,12.2c1.7,1.6,3.9,2.5,6.3,2.5c2.4,0,4.6-0.9,6.3-2.5l31.9-31.1C31.5,76.9,32.4,74.8,32.4,72.5z M95.8,44.9
	L80.1,29.6l15.7-15.3c1.7-1.6,2.6-3.8,2.6-6.1c0-2.3-0.9-4.5-2.6-6.1c-3.5-3.4-9.1-3.4-12.6,0L67.5,17.4L51.8,2.1
	c-1.7-1.6-3.9-2.5-6.3-2.5c-2.4,0-4.6,0.9-6.3,2.5c-1.7,1.6-2.6,3.8-2.6,6.1c0,2.3,0.9,4.5,2.6,6.1l15.7,15.3L39.2,44.9
	c-3.5,3.4-3.5,8.9,0,12.2c1.7,1.6,3.9,2.5,6.3,2.5c2.4,0,4.6-0.9,6.3-2.5l15.7-15.3l15.7,15.3c3.5,3.4,9.1,3.4,12.6,0
	c1.7-1.6,2.6-3.8,2.6-6.1C98.4,48.7,97.4,46.6,95.8,44.9z M73.8,66.3c-3.5-3.4-9.1-3.4-12.6,0L29.3,97.4c-3.5,3.4-3.5,8.9,0,12.2
	c1.7,1.6,3.9,2.5,6.3,2.5c2.4,0,4.6-0.9,6.3-2.5l31.9-31.1C77.2,75.2,77.3,69.7,73.8,66.3L73.8,66.3z">
 </path>
</svg>