<svg version="1.1" id="Layer_1" xmlns="http://www.w3.org/2000/svg" xmlns:xlink="http://www.w3.org/1999/xlink" x="0px" y="0px" viewBox="-319.6 -25 845.3 161.8" style="enable-background:new -319.6 -25 845.3 161.8;" xml:space="preserve">
 <style type="text/css">
  .st0{fill:#F34D2D;}
 </style>
 <g>
  <path class="st0" d="M216.1,15.8c3.3,0,6.1,0.2,8.5,0.7v26.7c-3.5-0.7-7.6-1.2-11.8-1.2c-19.6,0-32.1,12-32.1,31V134h-28.1V18.1
		h28.1v17.2C186.4,23.2,199.4,15.8,216.1,15.8z M105.9,18.1h28.3V134h-28.3v-16.8c-4,11.3-18.4,19.3-38,19.3
		c-16.8,0-31-5.7-42.5-17.2c-11.3-11.7-17-26-17-43.2s5.7-31.5,17-43C37,21.3,51.1,15.6,67.9,15.6c19.6,0,34,8.1,38,19.3V18.1
		L105.9,18.1z M108.1,76c0-10.1-3.5-18.6-10.6-25.3c-6.9-6.7-15.6-10.1-25.7-10.1s-18.4,3.4-25.3,10.1c-6.6,6.7-9.9,15.2-9.9,25.3
		c0,10.1,3.3,18.6,9.9,25.3c6.9,6.7,15.1,10.1,25.3,10.1c10.2,0,18.9-3.4,25.7-10.1C104.5,94.7,108.1,86.2,108.1,76L108.1,76z
		 M303.8,15.8c-17,0-30.5,7.6-36.1,18.9V18.1h-28.1V134h28.1V67.3c0-15.9,11.6-26.9,27.6-26.9c15.8,0,25.3,9.9,25.3,25.8V134h28.3
		V62.3C348.9,33.5,332.2,15.8,303.8,15.8L303.8,15.8z M494.7,18.1l-27.8,37.2l-27.8-37.2h-30.9l43.3,57.8L408.2,134h30.5l28.2-37.6
		l28.2,37.6h30.5l-43.3-58.1l43.3-57.8L494.7,18.1L494.7,18.1z M365.5,2.6h28.3V-25h-28.3V2.6z M365.5,134h28.3V18.1h-28.3V134z
		 M-123,76.2c0-18.4,5.9-33.1,17.5-44.3C-93.8,20.6-79,15.1-60.8,15.1c17.2,0,31.4,5.5,42.2,16.8c11.1,11.2,16.5,25,16.5,41.5
		c0,3.4-0.2,6.7-0.5,9.6H-95c0.9,18.4,14.9,30.3,35.8,30.3c12.3,0,22.9-4.4,32.1-13.3l17,16.1c-13.4,13.8-29.9,20.7-50,20.7
		c-18.6,0-34-5.5-45.5-16.3c-11.6-10.8-17.5-25.2-17.5-43.4L-123,76.2L-123,76.2z M-30.9,62.2c0-6-3.3-12.1-9.2-16.3
		c-5.9-4.4-12.7-6.6-21-6.6c-8.7,0-16.5,2.2-22.9,6.4c-6.4,4.2-9.7,10.3-10.4,16.5L-30.9,62.2L-30.9,62.2z M-306.9,75.2
		c3.4,0,6.6-1.3,9-3.6L-252,27c2.4-2.3,3.7-5.5,3.7-8.8c0-3.3-1.3-6.4-3.7-8.8c-2.4-2.3-5.6-3.6-9-3.6c-3.4,0-6.6,1.3-9,3.6
		L-315.9,54c-2.4,2.4-3.7,5.5-3.7,8.8c0,3.3,1.3,6.4,3.7,8.8C-313.5,74-310.3,75.2-306.9,75.2z M-248.2,79.7c0-3.3-1.3-6.4-3.7-8.8
		c-2.4-2.3-5.6-3.6-9-3.6s-6.6,1.3-9,3.6l-45.9,44.6c-5,4.8-5,12.7,0,17.6c2.4,2.3,5.6,3.6,9,3.6c3.4,0,6.6-1.3,9-3.6l45.9-44.6
		C-249.5,86.1-248.2,83-248.2,79.7z M-157.2,40.2l-22.6-22l22.6-22c2.4-2.3,3.7-5.5,3.7-8.8c0-3.3-1.3-6.4-3.7-8.8
		c-5-4.8-13.1-4.8-18.1,0l-22.6,22l-22.6-22c-2.4-2.4-5.6-3.6-9-3.6s-6.6,1.3-9,3.6c-2.4,2.3-3.7,5.5-3.7,8.8c0,3.3,1.3,6.4,3.7,8.8
		l22.6,22l-22.6,22c-5,4.8-5,12.7,0,17.6c2.4,2.3,5.6,3.6,9,3.6c3.4,0,6.6-1.3,9-3.6l22.6-22l22.6,22c5,4.8,13,4.8,18.1,0
		c2.4-2.3,3.7-5.5,3.7-8.8C-153.5,45.6-154.8,42.5-157.2,40.2z M-188.8,70.9c-5-4.8-13.1-4.8-18.1,0l-45.9,44.6
		c-5,4.8-5,12.7,0,17.6c2.4,2.3,5.6,3.6,9,3.6c3.4,0,6.6-1.3,9-3.6l45.9-44.6C-183.8,83.6-183.8,75.8-188.8,70.9L-188.8,70.9z">
  </path>
 </g>
</svg>