<?xml version="1.0" encoding="utf-8"?>
<!-- Generator: Adobe Illustrator 17.1.0, SVG Export Plug-In . SVG Version: 6.00 Build 0)  -->
<!DOCTYPE svg PUBLIC "-//W3C//DTD SVG 1.0//EN" "http://www.w3.org/TR/2001/REC-SVG-20010904/DTD/svg10.dtd">
<svg version="1.0" id="Layer_1" xmlns="http://www.w3.org/2000/svg" xmlns:xlink="http://www.w3.org/1999/xlink" x="0px" y="0px"
	 viewBox="0 0 186 46" enable-background="new 0 0 186 46" xml:space="preserve">
<g>
	<rect x="11" y="24.9" fill="#FFFFFF" width="167.2" height="1"/>
</g>
<path fill="#FFFFFF" d="M35,5.7c0.5,0,0.5,0,0.5,0.6c0,0.5,0,0.5-0.9,0.6c-1.3,0.1-1.4,0.4-1.4,4.1c0,2.7,0,8.4,0,9
	c0,0.5,0.1,0.6,0.2,0.7c0.2,0,1.3,0.1,2,0.1c1.9,0,4.1-0.2,4.6-0.7c0.3-0.3,0.5-0.7,1-2.3c0.1-0.2,0.2-0.3,0.3-0.3
	c0.1,0,0.4,0.1,0.7,0.2c0.4,0.1,0.5,0.2,0.5,0.4c0,0.3-0.2,1.2-0.6,3.3c-0.2,1.1-0.3,1.2-0.7,1.2c-0.1,0-0.4,0-0.6,0l-6.1-0.1
	L27,22.7c-0.4,0-0.4,0-0.4-0.7c0-0.4,0-0.5,0.3-0.5c1.2-0.1,1.4-0.2,1.6-0.7c0.2-0.4,0.2-2.8,0.2-5.1V14v-3.1c0-2.9,0-3.1-0.2-3.5
	c-0.1-0.3-0.4-0.5-1.1-0.5c-0.8,0-0.8,0-0.8-0.6c0-0.6,0-0.7,0.5-0.7c0.1,0,0.3,0,0.6,0c0,0,3.2,0,3.2,0L35,5.7z"/>
<path fill="#FFFFFF" d="M94.7,8.5C93.1,7.4,91.2,7,87.4,7c-0.2,0-1.2,0-2.8,0c-3.2,0-3.2,0-3.6,0c-0.4,0-3.8,0-4.9,0
	c-0.6,0-1.7,0-2.4,0l-1.3,0C72,7,72,7.1,72,7.7c0,0.6,0,0.6,0.7,0.6c1.9,0,2,0.2,2.1,3.6l0,2.4l0,2.2l0,0.4
	c-0.5-0.5-1.7-1.9-3.9-4.4c-3.1-3.4-3.8-4.3-4.2-5C66.5,7.1,66.4,7,66.1,7c-0.1,0-0.3,0-0.5,0l-1.4,0L60.4,7C60.1,7,60,7.1,60,7.4
	c0,0.8,0,0.9,0.4,0.9c0.7,0,1.1,0.2,1.5,0.5c0.4,0.3,0.6,0.6,0.6,1c0,0.1,0,0.4,0,0.8l0,1.7c-0.1,5.2-0.1,5.9-0.2,7.3
	c-0.1,1.2-0.5,1.7-1.6,1.9c-0.2,0-0.6,0-0.7,0c-0.6,0-0.7-0.1-1.9-3C57,15.9,55.2,11.4,54,8c-0.3-1-0.3-1-0.5-1c-0.1,0-0.2,0-0.4,0
	c-0.6,0.1-1.3,0.2-2,0.2c-0.5,0-0.5,0-0.7,0.6c-0.7,1.6-1.3,2.9-2,4.3l-1.7,3.5c-2.5,5.2-2.6,5.4-3.4,5.7c-0.8,0.2-0.8,0.2-0.8,0.8
	c0,0.4,0.1,0.5,0.4,0.5c2.2,0,2.8-0.1,3-0.1l2.4,0c0.3,0,0.6,0,0.7,0c0.3,0,0.4-0.1,0.4-0.5c0-0.7,0-0.7-0.4-0.7c-1,0-1,0-1.3-0.1
	c-0.4-0.1-0.6-0.3-0.6-0.7c0-0.3,0.5-1.8,1-2.9h5.3c0.2,0.5,0.3,0.8,0.6,1.6c0.1,0.3,0.2,0.7,0.3,1c0.1,0.2,0.1,0.4,0.1,0.5
	c0,0.4-0.4,0.6-1.4,0.6c-0.4,0-0.4,0.1-0.4,0.6c0,0.5,0,0.6,0.4,0.6c0.1,0,0.3,0,0.5,0l3.1,0c0,0,7,0,7.1,0c1.2,0,2.6,0,3.3,0.1h0.3
	c0.3,0,0.4-0.1,0.4-0.6c0-0.6,0-0.6-0.7-0.6c-1.5,0-2-0.2-2.1-1.1c-0.1-0.7-0.2-5-0.2-7.7v-1.3c0.7,1,1.2,1.7,2.8,3.5
	c3.3,3.8,5.3,6.1,6,6.9c0.9,1.3,0.9,1.3,1.1,1.3c0.1,0,0.2,0,0.3-0.1c0.2-0.1,0.5-0.2,0.7-0.2c1.1-0.2,1.1-0.2,1.1-0.6l0-1.7
	c0-0.5,0-1,0-1.9l0-2.6c0.1-4.1,0.1-5.1,0.2-6.3c0.1-0.9,0.5-1.2,1.7-1.3c0.1,0,0.5,0,0.7,0c0.8,0,1.1,0.2,1.2,0.9
	c0.1,0.6,0.1,1.1,0.1,6c0,1.8,0,5.9-0.1,7.4l0,0l2.2,0.1l3.3,0c3.4,0,5-0.2,6.8-1c2.9-1.2,4.6-3.9,4.6-7.4
	C97.5,11.8,96.5,9.8,94.7,8.5z M49.7,16.4c-0.5,0-0.7,0-1.2,0c0.7-1.6,0.8-1.8,2.2-5.3c0.6,1.6,0.8,2.2,1,2.7
	c0.2,0.7,0.5,1.4,0.7,2.1l0.2,0.5C52.3,16.4,51.5,16.4,49.7,16.4z M90.1,20.5c-0.8,0.4-2,0.6-3,0.6c-1.1,0-1.7-0.2-1.8-0.7
	c-0.1-0.4-0.2-1.2-0.2-3.5c0-5.5,0-6.9,0.1-7.7c0.1-0.7,0.4-0.8,1.9-0.8c1.5,0,2.5,0.2,3.3,0.8c1.5,1,2.3,2.9,2.3,5.6
	C92.8,17.6,91.8,19.7,90.1,20.5z"/>
<path fill="#FFFFFF" d="M172.7,21.5c-0.6-0.1-1-0.3-2.8-2.2c-1.6-1.7-4.4-4.8-5.8-6.3c0.9-0.8,2.3-1.8,3.6-2.8
	c2-1.5,2.6-1.8,3.3-1.9c0.6-0.1,0.6-0.1,0.7-0.2c0-0.1,0-0.4,0-0.7c0-0.3-0.1-0.4-0.3-0.4c-0.1,0-0.3,0-0.6,0l-3.1,0l-3.1,0
	c-0.2,0-0.4,0-0.5,0c-0.3,0-0.4,0.1-0.4,0.7v0.1c0,0.3,0.1,0.4,0.4,0.4c1.6,0,1.8,0.1,1.8,0.4c0,0.3-0.3,0.6-1.2,1.4l-4.1,3.6
	c-0.1,0.1-0.2,0.2-0.4,0.3c0-2,0-3.2,0-4.4c0.1-1,0.3-1.2,1.2-1.3c0.8-0.1,0.8-0.1,0.8-0.7c0-0.5,0-0.6-0.4-0.6c-0.1,0-0.3,0-0.6,0
	l-3,0l-3.3,0c-0.2,0-0.3,0-0.4,0c-0.4,0-0.4,0.1-0.4,0.7c0,0.5,0.1,0.5,0.7,0.6c1,0,1.2,0.3,1.2,1.6v0.8c0,2.5,0,2.5,0,3
	c0,2.4,0,6.6-0.1,8.8l2.2,0l3.2,0.1c0.2,0,0.4,0,0.4,0c0.4,0,0.4-0.1,0.4-0.7c0-0.5-0.1-0.6-0.6-0.6c-1.3,0-1.3-0.1-1.3-4v-1.7
	l0.5-0.4c0.6,0.6,1,1.1,2.2,2.4c0.8,0.8,3.1,3,3.1,3.3c0,0.2-0.2,0.4-0.5,0.4c-0.9,0.1-0.9,0.1-0.9,0.7c0,0.5,0,0.6,0.4,0.6
	c0.1,0,0.3,0,0.6,0l3,0l4,0.1c0.3,0,0.4-0.1,0.4-0.7C173,21.6,172.9,21.6,172.7,21.5z"/>
<g>
	<rect x="20.6" y="3.6" fill="#FFFFFF" width="1" height="38.8"/>
</g>
<polygon fill="#FFFFFF" points="21.1,0 18.6,9.1 21.1,12.1 23.7,9.1 "/>
<path fill="#FFFFFF" d="M21.1,3.6v6.9c0.6-0.7,1.1-1.3,1.5-1.7C22.5,8.3,21.8,6.1,21.1,3.6z"/>
<polygon fill="#FFFFFF" points="21.1,46 23.7,36.9 21.1,33.9 18.5,36.9 "/>
<path fill="#FFFFFF" d="M21.1,42.4v-6.9c-0.6,0.7-1.1,1.3-1.5,1.7C19.8,37.7,20.4,39.9,21.1,42.4z"/>
<polygon fill="#FFFFFF" points="186,25.4 176.8,22.9 173.8,25.4 176.8,28 "/>
<path fill="#FFFFFF" d="M182.3,25.4h-7c0.7,0.6,1.3,1.1,1.7,1.5C177.6,26.7,179.9,26.1,182.3,25.4z"/>
<polygon fill="#FFFFFF" points="0,25.4 9.2,27.9 12.2,25.4 9.2,22.8 "/>
<path fill="#FFFFFF" d="M3.7,25.4h7c-0.7-0.6-1.3-1.1-1.7-1.5C8.4,24.1,6.1,24.7,3.7,25.4z"/>
<path fill="#FFFFFF" d="M156.1,21.3c-0.1,0-0.4,0-0.6,0c-2.6,0.2-4.4-1.6-6.5-6.2c2.3-0.4,3.6-1.8,3.6-3.9c0-1.5-0.6-2.6-1.8-3.4
	c-1-0.7-2.2-0.9-4.8-0.9l-5,0l-3.4,0c-0.4,0-0.4,0.1-0.4,0.7c0,0.5,0,0.5,0.8,0.6c0.8,0,1.1,0.2,1.2,0.9c0.1,0.6,0.1,0.9,0.1,6.2
	c0,5.8-0.1,6-1.8,6.1c-0.3,0-0.6,0-1-0.7c-0.2-0.4-0.5-1.1-1.1-2.3c-1.1-2.6-2.9-7.1-4.1-10.5c-0.3-1-0.3-1-0.5-1
	c-0.1,0-0.2,0-0.4,0c-0.6,0.1-1.3,0.2-2,0.2c-0.5,0-0.5,0-0.7,0.6c-0.7,1.6-1.3,2.9-2,4.3l-1.7,3.5c-2.5,5.2-2.6,5.4-3.4,5.7
	c-0.1,0-0.5,0-0.8,0c-1.1,0-1.3-0.3-1.3-2.1c0-1.6-0.1-7.3-0.1-8.5c0-1.3,0-1.5,0.1-1.9c0.2-0.4,0.5-0.5,1.2-0.6
	c0.8-0.1,0.8-0.1,0.8-0.6c0-0.6,0-0.7-0.4-0.7c-0.1,0-0.4,0-0.8,0l-1.3,0c-1.4,0-1.4,0-1.9,0c-0.4,0-1.3,0-1.5,0h-0.3
	c-0.2,0-0.3,0.1-0.4,0.5c-0.5,1.5-3.1,6.9-4.7,10c-3-7.1-3.5-8.6-4-10.3C105.1,7.1,105,7,104.8,7c-0.1,0-0.4,0-0.7,0
	c-0.2,0-1.6,0-1.9,0c-0.2,0-0.9,0-1.7,0L98,7c-0.4,0-0.5,0.1-0.5,0.5c0,0.7,0,0.7,0.6,0.7c1.4,0,2,0.5,2,1.8c0,1.1-0.2,5.2-0.5,8.9
	c-0.1,1.9-0.4,2.3-2,2.5c-0.3,0-0.3,0.1-0.3,0.5c0,0.6,0.1,0.7,0.4,0.7c1,0,2.6-0.1,3.3-0.1h0.8c1.2,0,2.3,0.1,2.3,0.1
	c0.3,0,0.4-0.1,0.4-0.6c0-0.6,0-0.6-0.7-0.6c-1.9,0-2-0.2-2-4V16l0-2.1l0-2.5l0-0.9c0.3,0.9,2.1,5.5,3.1,8c0.3,0.8,0.6,1.6,0.9,2.3
	c0.7,1.8,0.7,1.8,0.8,1.8c0,0,0.1,0,0.2,0c0.2-0.1,0.3-0.1,1.6-0.3c0.4-0.1,0.4-0.1,0.6-0.5c0.7-1.9,0.9-2.3,4.9-10.9
	c0,1.7,0,3.5,0,6.4c0,3.7-0.1,3.9-1.4,4.1c-1,0.1-1,0.1-1,0.6c0,0.6,0,0.7,0.5,0.7l4.3-0.1h6.7l2.4,0c0.3,0,0.6,0,0.7,0
	c0.3,0,0.4-0.1,0.4-0.5c0-0.7,0-0.7-0.4-0.7c-1,0-1,0-1.3-0.1c-0.4-0.1-0.6-0.3-0.6-0.7c0-0.3,0.5-1.8,1-2.9h5.3
	c0.2,0.5,0.3,0.8,0.6,1.6c0.1,0.3,0.2,0.7,0.3,1c0.1,0.2,0.1,0.4,0.1,0.5c0,0.4-0.4,0.6-1.4,0.6c-0.4,0-0.4,0.1-0.4,0.6
	c0,0.5,0,0.6,0.4,0.6c0.1,0,0.3,0,0.5,0l3.1,0c0,0,2.4,0,3.7,0c1.3,0,3.9,0,3.9,0l3.3,0c0.3,0,0.7,0,0.8,0c0.4,0,0.4-0.1,0.4-0.7
	c0-0.5,0-0.5-0.9-0.6c-1.3,0-1.4-0.2-1.4-3.4c0-1.1,0-1.7,0-2.3c0.4,0,0.5,0,0.7,0s0.4,0,0.6,0c1.1,2.4,2,3.7,2.8,4.9
	c1.4,2.1,3.2,2.4,5.3,2.4c1.1,0,2.7-0.4,3.3-0.5L156.1,21.3z M127,16.4c-0.5,0-0.7,0-1.2,0c0.7-1.6,0.8-1.8,2.2-5.3
	c0.6,1.6,0.8,2.2,1,2.7c0.2,0.7,0.5,1.4,0.7,2.1l0.2,0.5C129.5,16.4,128.7,16.4,127,16.4z M147.4,13.5c-0.4,0.6-1.1,0.8-2.4,0.8
	c-0.5,0-0.9,0-1.5-0.1l0-0.7v-1.6c0-2.4,0-2.9,0.1-3.1c0.1-0.3,0.4-0.4,1.4-0.4c1.9,0,2.8,1,2.8,3C147.9,12.3,147.7,13.1,147.4,13.5
	z"/>
<g>
	<path fill="#FFFFFF" d="M31.5,35.1c0,1.2,0.1,2.5,0.1,2.9c0.1,0.5,0.1,0.5,1.3,0.6c0.4,0,0.4,0,0.4,0.3c0,0.4,0,0.4-0.3,0.4l-2.2,0
		c-0.4,0-1.8,0-2,0h-0.7c-0.4,0-0.4,0-0.4-0.3c0-0.3,0-0.3,0.4-0.3c1.1-0.1,1.1-0.1,1.1-5.3c0-2.7,0-3.2-0.1-3.7
		c-0.1-0.4-0.2-0.4-1.1-0.4c-0.3,0-0.3,0-0.3-0.3c0-0.3,0-0.3,0.2-0.3h1.9l1.3,0c0.7,0,1.4,0,1.7,0c1.5,0,2.4,0.2,3.3,0.7
		c0.8,0.6,1.3,1.5,1.3,2.5c0,2.1-2,3.5-5,3.5L31.5,35.1z M32.2,34.3c1.8,0,2.7-0.9,2.7-2.6c0-1.7-0.9-2.5-2.7-2.5
		c-0.6,0-0.7,0-0.7,0.4v0.3v0.6l0,0.7v0.9v0.8l0,1.2c0,0,0,0.1,0,0.3H32.2z"/>
	<path fill="#FFFFFF" d="M46,35v0.9c0,1.8,0,2.2,0.2,2.4c0.1,0.2,0.4,0.3,1.1,0.3c0.4,0,0.4,0,0.4,0.3c0,0.3,0,0.3-0.2,0.3h-0.3
		l-2.2,0c-0.5,0-1.1,0-1.6,0h-0.8c-0.3,0-0.4,0-0.4-0.4c0-0.3,0-0.3,0.4-0.3c0.8-0.1,1.1-0.3,1.1-1.2c0.1-1.7,0.1-2.5,0.1-4.3
		c0-2.5,0-3.2-0.1-3.6c-0.1-0.3-0.2-0.4-1-0.4c-0.3,0-0.3,0-0.3-0.4c0-0.3,0-0.3,0.3-0.3l1.3,0c0.4,0,1.4,0,2,0c0.9,0,1.7-0.1,2-0.1
		c2.4,0,3.9,1.1,3.9,2.9c0,1.4-0.7,2.3-2.2,2.9c1.8,3.3,3.1,4.5,4.6,4.5c0.1,0,0.2,0,0.2,0.3c0,0.2,0,0.2-0.1,0.3
		c-0.2,0.1-0.7,0.2-1.2,0.2c-2.4,0-3.7-1.2-5.6-4.8c-0.5,0-0.6,0-0.8,0H46V35z M46,33.8c0.3,0,0.5,0,0.9,0c1.6,0,2.3-0.7,2.3-2.3
		c0-1.5-0.8-2.4-2.1-2.4c-0.8,0-1,0.1-1.1,0.4v1.6c0,0.8,0,0.8,0,1.9V33.8z"/>
	<path fill="#FFFFFF" d="M70.5,33.8c0,3.3-2.7,5.7-6.4,5.7c-3.6,0-6-2.3-6-5.5c0-3.3,2.7-5.6,6.4-5.6C67.9,28.3,70.5,30.6,70.5,33.8
		z M60.6,33.5c0,2.9,1.6,5,3.9,5c2.1,0,3.3-1.6,3.3-4.2c0-3-1.6-5.1-4-5.1C61.9,29.2,60.6,30.9,60.6,33.5z"/>
	<path fill="#FFFFFF" d="M79.7,35.1c0,1.2,0.1,2.5,0.1,2.9c0.1,0.5,0.1,0.5,1.3,0.6c0.4,0,0.4,0,0.4,0.3c0,0.4,0,0.4-0.3,0.4l-2.2,0
		c-0.4,0-1.8,0-2,0h-0.7c-0.4,0-0.4,0-0.4-0.3c0-0.3,0-0.3,0.4-0.3c1.1-0.1,1.1-0.1,1.1-5.3c0-2.7,0-3.2-0.1-3.7
		c-0.1-0.4-0.2-0.4-1.1-0.4c-0.3,0-0.3,0-0.3-0.3c0-0.3,0-0.3,0.2-0.3h1.9l1.3,0c0.7,0,1.4,0,1.7,0c1.5,0,2.4,0.2,3.3,0.7
		c0.8,0.6,1.3,1.5,1.3,2.5c0,2.1-2,3.5-5,3.5L79.7,35.1z M80.4,34.3c1.8,0,2.7-0.9,2.7-2.6c0-1.7-0.9-2.5-2.7-2.5
		c-0.6,0-0.7,0-0.7,0.4v0.3v0.6l0,0.7v0.9v0.8l0,1.2c0,0,0,0.1,0,0.3H80.4z"/>
	<path fill="#FFFFFF" d="M98.2,35.6c-0.1,0-0.1,0-0.2-0.4c-0.1-0.8-0.2-1-1.1-1c-0.3,0-1.6-0.1-2.7-0.1c0,1.7,0,2.2,0,3.4
		c0,0.9,0,0.9,1.5,0.9c2.6,0,2.9-0.2,3.7-1.9c0.1-0.3,0.2-0.3,0.3-0.3c0.2,0,0.5,0.1,0.5,0.3c0,0.2-0.1,0.8-0.3,1.6
		c-0.1,0.4-0.1,0.5-0.3,1c-0.1,0.3-0.1,0.3-0.4,0.3c-0.1,0-0.2,0-0.8,0l-4.7,0c-0.7,0-0.7,0-2.4,0h-0.5c-0.2,0-0.3-0.1-0.3-0.4
		c0-0.3,0.1-0.3,0.3-0.3c1,0,1.1-0.1,1.2-0.8c0.1-0.6,0.1-1.8,0.1-4.2c0-2,0-3.2,0-3.8c0-0.6-0.2-0.7-0.9-0.7c-0.5,0-0.5,0-0.5-0.4
		c0-0.3,0.1-0.3,0.3-0.3h0.3c0.7,0,1.6,0,2.9,0c2,0,4,0,4.9,0h0.4c0.4,0,0.5,0,0.5,0.2c0,0.1,0,0.2,0,0.3c-0.1,0.4-0.1,1.2-0.2,1.8
		c0,0.5,0,0.6-0.4,0.6c-0.3,0-0.3,0-0.4-0.3c-0.1-1.6-0.3-1.7-2.7-1.7c-1.3,0-1.8,0-1.9,0.2c0,0,0,0.2,0,1v1v1.2v0.4h1.3
		c2.3,0,2.5,0,2.5-1c0-0.3,0.1-0.4,0.2-0.4c0.4,0,0.5,0,0.5,0.2c0,0.1,0,0.1,0,0.4c0,0.4,0,1,0,1.5c0,0.4,0,0.4,0,1.1v0.2
		c0,0.3,0,0.3-0.4,0.3H98.2z"/>
	<path fill="#FFFFFF" d="M109.2,35v0.9c0,1.8,0,2.2,0.2,2.4c0.1,0.2,0.4,0.3,1.1,0.3c0.4,0,0.4,0,0.4,0.3c0,0.3,0,0.3-0.2,0.3h-0.3
		l-2.2,0c-0.5,0-1.1,0-1.6,0h-0.8c-0.3,0-0.4,0-0.4-0.4c0-0.3,0-0.3,0.4-0.3c0.8-0.1,1.1-0.3,1.1-1.2c0.1-1.7,0.1-2.5,0.1-4.3
		c0-2.5,0-3.2-0.1-3.6c-0.1-0.3-0.2-0.4-1-0.4c-0.3,0-0.3,0-0.3-0.4c0-0.3,0-0.3,0.3-0.3l1.3,0c0.4,0,1.4,0,2,0c0.9,0,1.7-0.1,2-0.1
		c2.4,0,3.9,1.1,3.9,2.9c0,1.4-0.7,2.3-2.2,2.9c1.8,3.3,3.1,4.5,4.6,4.5c0.1,0,0.2,0,0.2,0.3c0,0.2,0,0.2-0.1,0.3
		c-0.2,0.1-0.7,0.2-1.2,0.2c-2.4,0-3.7-1.2-5.6-4.8c-0.5,0-0.6,0-0.8,0h-0.6V35z M109.2,33.8c0.3,0,0.5,0,0.9,0
		c1.6,0,2.3-0.7,2.3-2.3c0-1.5-0.8-2.4-2.1-2.4c-0.8,0-1,0.1-1.1,0.4v1.6c0,0.8,0,0.8,0,1.9V33.8z"/>
	<path fill="#FFFFFF" d="M123.7,39.3c-0.3,0-0.3,0-0.3-0.4c0-0.3,0-0.3,0.4-0.3c1,0,1.4-0.3,1.4-1c0-0.6,0.1-2.6,0.1-4.7
		c0-0.9,0-2.9,0-3.3c-3,0-3.3,0.1-3.6,1.1c-0.1,0.6-0.1,0.6-0.5,0.6c-0.3,0-0.4,0-0.4-0.2c0-0.2,0-0.4,0.4-2.2
		c0.1-0.5,0.1-0.6,0.3-0.6c0.1,0,0.1,0,0.3,0.1c0.2,0.1,1.6,0.2,4.3,0.2c0.2,0,1.8,0,4.5,0c1,0,1.1,0,1.3-0.2l0.2,0
		c0.2,0,0.3,0,0.3,0.2c0,0.2-0.2,1-0.5,2.2l-0.1,0.3c-0.1,0.3-0.1,0.3-0.4,0.3c-0.4,0-0.4,0-0.4-0.6v-0.2c0-0.8-0.1-0.9-2.3-0.9
		h-0.8h-0.2c0,1,0,2.5,0,4.7v1c0,1.9,0,2.7,0.2,3c0.1,0.2,0.5,0.3,1.4,0.4c0.3,0,0.4,0,0.4,0.4c0,0.3,0,0.3-0.3,0.3l-3,0
		c-0.4,0-0.4,0-1.4,0l-1.1,0H123.7z"/>
	<path fill="#FFFFFF" d="M138.3,31.5c0-1.3-0.1-1.9-0.2-2.1c-0.1-0.2-0.3-0.2-1.2-0.2c-0.3,0-0.4-0.1-0.4-0.3c0-0.4,0-0.4,0.5-0.4
		c0,0,0.4,0,0.8,0h1.7c0.8,0,1.8,0,2.5,0h0.1c0.3,0,0.3,0,0.3,0.3c0,0.4,0,0.4-0.6,0.4c-1.2,0.1-1.2,0.1-1.2,4.3
		c0,3.2,0,4.1,0.1,4.6c0.1,0.4,0.3,0.5,1.5,0.6c0.2,0,0.2,0,0.2,0.2c0,0.4,0,0.4-0.3,0.4h-0.5c-0.5,0-0.5,0-1.3,0h-0.8l-2.8,0
		c-0.3,0-0.3,0-0.3-0.3c0-0.3,0-0.3,0.5-0.3c1-0.1,1.1-0.2,1.2-1.6c0-0.7,0.1-2.2,0.1-4.3V31.5z"/>
	<path fill="#FFFFFF" d="M155.3,35.6c-0.1,0-0.1,0-0.2-0.4c-0.1-0.8-0.2-1-1.1-1c-0.3,0-1.6-0.1-2.7-0.1c0,1.7,0,2.2,0,3.4
		c0,0.9,0,0.9,1.5,0.9c2.6,0,2.9-0.2,3.7-1.9c0.1-0.3,0.2-0.3,0.3-0.3c0.2,0,0.5,0.1,0.5,0.3c0,0.2-0.1,0.8-0.3,1.6
		c-0.1,0.4-0.1,0.5-0.3,1c-0.1,0.3-0.1,0.3-0.4,0.3c-0.1,0-0.2,0-0.8,0l-4.7,0c-0.7,0-0.7,0-2.4,0h-0.5c-0.2,0-0.3-0.1-0.3-0.4
		c0-0.3,0.1-0.3,0.3-0.3c1,0,1.1-0.1,1.2-0.8c0.1-0.6,0.1-1.8,0.1-4.2c0-2,0-3.2,0-3.8c0-0.6-0.2-0.7-0.9-0.7c-0.5,0-0.5,0-0.5-0.4
		c0-0.3,0.1-0.3,0.3-0.3h0.3c0.7,0,1.6,0,2.9,0c2,0,4,0,4.9,0h0.4c0.4,0,0.5,0,0.5,0.2c0,0.1,0,0.2,0,0.3c-0.1,0.4-0.1,1.2-0.2,1.8
		c0,0.5,0,0.6-0.4,0.6c-0.3,0-0.3,0-0.4-0.3c-0.1-1.6-0.3-1.7-2.7-1.7c-1.3,0-1.8,0-1.9,0.2c0,0,0,0.2,0,1v1v1.2v0.4h1.3
		c2.3,0,2.5,0,2.5-1c0-0.3,0.1-0.4,0.2-0.4c0.4,0,0.5,0,0.5,0.2c0,0.1,0,0.1,0,0.4c0,0.4,0,1,0,1.5c0,0.4,0,0.4,0,1.1v0.2
		c0,0.3,0,0.3-0.4,0.3H155.3z"/>
	<path fill="#FFFFFF" d="M169.9,28.4c0.2,0,0.2,0,0.2,0.5c0,0.7,0,1.2,0.1,1.8c0,0.1,0,0.3,0,0.4c0,0.2-0.1,0.3-0.5,0.3
		c-0.2,0-0.2,0-0.4-0.6c-0.4-1.1-1.1-1.6-2.4-1.6c-1.2,0-1.9,0.6-1.9,1.6c0,0.6,0.2,1,0.6,1.3c0.4,0.3,0.6,0.4,1.8,0.9
		c1.6,0.7,2.1,0.9,2.6,1.4c0.6,0.6,0.9,1.2,0.9,1.9c0,2-1.7,3.2-4.5,3.2c-0.8,0-2-0.1-2.8-0.3c-0.1,0-0.2,0-0.2,0
		c-0.1,0-0.1,0-0.2,0.1c0,0-0.1,0-0.2,0c-0.4,0-0.4,0-0.4-0.8c-0.1-0.9-0.2-1.9-0.2-2.3c0-0.3,0-0.4,0.2-0.4c0.1,0,0.3-0.1,0.4-0.1
		c0.1,0,0.2,0,0.2,0.2c0.2,0.7,0.4,1.2,0.7,1.5c0.5,0.6,1.5,0.9,2.6,0.9c1.3,0,2.1-0.7,2.1-1.8c0-1-0.4-1.3-2.5-2.2
		c-1.5-0.6-1.9-0.8-2.4-1.3c-0.6-0.5-0.9-1.1-0.9-1.9c0-1.8,1.7-3.1,4.1-3.1c0.8,0,1.6,0.1,2.5,0.2h0.1c0.1,0,0.1,0,0.2-0.1
		C169.7,28.4,169.8,28.4,169.9,28.4L169.9,28.4z"/>
</g>
</svg>
